<?xml version="1.0" standalone="no"?>
<!DOCTYPE svg PUBLIC "-//W3C//DTD SVG 20010904//EN"
 "http://www.w3.org/TR/2001/REC-SVG-20010904/DTD/svg10.dtd">
<svg version="1.0" xmlns="http://www.w3.org/2000/svg"
 width="512.000000pt" height="512.000000pt" viewBox="0 0 512.000000 512.000000"
 preserveAspectRatio="xMidYMid meet">
<metadata>
Created by potrace 1.14, written by Peter Selinger 2001-2017
</metadata>
<g transform="translate(0.000000,512.000000) scale(0.100000,-0.100000)"
fill="#000000" stroke="none">
<path d="M2295 4929 c-126 -16 -313 -90 -436 -172 -110 -73 -224 -214 -270
-334 -20 -51 -27 -61 -43 -57 -10 3 -55 6 -100 6 -123 0 -219 -38 -299 -118
-54 -54 -113 -177 -122 -254 l-7 -61 -82 -53 c-190 -123 -328 -243 -409 -358
-55 -78 -176 -322 -208 -423 -32 -100 -32 -215 -1 -271 13 -22 38 -49 55 -60
41 -23 121 -24 165 0 46 24 51 14 13 -29 -42 -49 -93 -151 -135 -276 -47 -139
-67 -225 -76 -339 -6 -73 -14 -108 -34 -148 -38 -75 -56 -155 -56 -248 0 -221
93 -495 236 -695 67 -95 308 -347 428 -448 189 -160 446 -311 671 -396 33 -12
84 -11 90 3 2 6 9 12 14 12 16 0 40 -30 35 -44 -3 -7 1 -17 8 -23 48 -38 438
-123 564 -123 l52 0 -6 65 -5 65 30 0 c17 0 58 3 93 7 l63 6 -5 -78 -5 -78
171 6 c256 9 488 54 751 144 128 44 402 171 430 200 8 8 15 29 15 48 0 35 15
45 71 45 37 0 89 20 89 33 -1 35 -16 39 -96 27 -44 -6 -91 -13 -106 -16 -25
-5 -30 0 -57 54 -75 148 -73 135 -78 490 -4 235 -2 322 6 322 6 0 11 8 11 19
0 10 6 24 14 31 12 9 17 4 26 -32 21 -81 29 -95 54 -91 23 5 42 -19 30 -38 -9
-15 -42 -10 -53 9 -9 15 -10 14 -11 -6 0 -30 17 -62 34 -62 31 0 49 39 48 103
-1 34 2 89 7 122 7 49 9 32 10 -97 l1 -158 -65 0 c-78 0 -77 1 -73 -140 l3
-95 40 -3 c62 -4 68 5 73 103 3 57 8 85 16 82 7 -2 13 -79 16 -243 l5 -239 55
-3 c30 -1 129 10 220 25 l165 28 7 128 c3 71 8 130 10 131 2 2 43 0 91 -3 135
-9 137 -33 18 -209 -85 -125 -102 -142 -144 -142 -21 0 -24 4 -21 27 2 16 2
23 -2 16 -4 -8 -13 -9 -30 -2 -17 6 -32 5 -45 -1 -11 -6 -24 -8 -29 -5 -16 10
-80 -6 -80 -20 0 -7 7 -18 15 -25 11 -9 14 -22 10 -41 -3 -15 -1 -30 4 -34 6
-3 79 6 163 20 124 21 157 30 175 48 41 42 193 252 199 275 4 14 -3 41 -18 73
-20 38 -21 46 -8 34 16 -14 28 -15 99 -4 45 7 81 16 81 21 0 4 16 8 35 8 36 0
43 7 47 49 2 20 -3 27 -27 35 -16 6 -37 19 -45 28 -10 12 -49 24 -117 35 -87
15 -103 21 -112 40 -22 47 -53 57 -164 49 -56 -4 -113 -8 -127 -9 -25 -2 -25
-1 -28 90 -3 101 -7 95 68 108 114 20 185 53 216 101 30 45 54 135 54 203 0
36 7 146 15 245 10 125 12 198 5 244 -13 95 -67 198 -135 260 l-54 50 9 58 c6
33 10 74 10 92 0 28 -3 32 -25 32 -21 0 -25 5 -25 33 -1 17 -13 64 -29 103
-102 260 -328 392 -572 334 -116 -27 -245 -116 -305 -208 -28 -44 -45 -61 -61
-61 -13 -1 -28 -10 -35 -21 -7 -11 -21 -20 -30 -20 -10 0 -24 -10 -32 -22 -16
-25 -66 -171 -66 -192 0 -8 -24 -20 -61 -29 l-61 -15 6 45 c3 25 6 54 6 65 0
18 1 18 22 -2 29 -27 32 -20 15 32 -8 23 -16 88 -18 143 -3 97 -3 101 24 129
15 16 28 34 29 40 0 6 2 16 2 21 1 6 8 20 14 33 11 18 10 23 -2 28 -8 3 -23 1
-35 -5 -29 -16 -32 -14 -21 15 15 38 3 46 -33 24 -18 -11 -35 -20 -39 -20 -3
0 -18 24 -31 53 -13 28 -38 69 -56 91 -17 21 -31 42 -31 47 0 5 -14 24 -31 44
l-31 35 22 46 c12 25 23 58 25 74 1 16 7 35 13 42 5 7 12 24 14 37 4 28 22 34
228 81 74 17 141 38 149 45 37 37 -50 166 -149 222 l-47 26 -10 94 c-7 65 -16
102 -29 121 -18 25 -19 29 -5 57 24 47 18 132 -12 199 -26 55 -106 170 -190
269 -22 26 -72 69 -112 96 -163 109 -354 149 -570 120z m372 -79 c53 -20 84
-38 88 -50 3 -10 25 -39 49 -64 l42 -46 -37 0 c-77 0 -155 -58 -179 -134 -15
-46 -37 -70 -70 -74 -14 -1 -95 -9 -180 -16 -85 -8 -163 -17 -172 -21 -11 -4
-20 0 -27 13 -13 24 8 45 65 66 94 35 -80 6 -206 -33 -36 -12 -67 -21 -69 -21
-3 0 8 14 25 31 19 21 25 33 17 36 -15 5 -17 49 -4 58 5 3 11 -5 13 -17 2 -17
12 -4 40 53 43 87 93 148 157 192 26 17 49 35 53 41 11 17 89 25 203 21 95 -3
122 -8 192 -35z m-606 -89 c-12 -16 -28 -46 -37 -67 -19 -46 -30 -38 -14 11
12 36 59 100 67 91 3 -3 -4 -18 -16 -35z m871 -135 c109 -52 228 -207 228
-298 0 -71 -52 -136 -117 -148 -88 -15 -198 33 -280 124 -193 210 -91 412 145
290 78 -40 161 -117 189 -173 9 -20 22 -61 29 -91 l12 -55 1 44 c3 131 -162
302 -318 332 l-46 8 52 -4 c29 -2 76 -15 105 -29z m-372 -258 c25 -68 82 -151
127 -184 36 -26 126 -68 179 -83 64 -18 138 -13 209 14 36 13 72 22 80 19 17
-7 20 -54 4 -54 -15 0 -3 -61 13 -71 20 -13 1 -22 -20 -10 -63 34 -377 91
-498 91 -38 0 -42 2 -48 31 -3 17 -6 42 -6 54 0 24 -57 75 -84 75 -22 0 -29
17 -27 72 1 63 -20 97 -63 100 -17 1 -2 4 34 7 36 4 68 5 71 4 3 -1 16 -31 29
-65z m84 38 c7 3 20 -11 30 -34 20 -43 96 -126 154 -166 20 -14 67 -33 104
-43 55 -14 75 -15 110 -6 52 14 60 10 19 -11 -47 -25 -133 -21 -192 10 -62 31
-168 132 -204 194 l-26 45 6 -35 c6 -27 4 -32 -5 -23 -7 6 -14 33 -16 60 -1
26 -1 38 2 26 3 -12 11 -20 18 -17z m-610 -72 c9 -8 16 -23 16 -32 1 -9 5 -48
10 -87 9 -75 4 -125 -14 -125 -14 0 -17 53 -3 62 8 5 7 18 -2 46 -8 22 -10 45
-7 51 4 6 2 11 -4 11 -7 0 -10 13 -8 33 2 23 -1 32 -12 33 -32 3 -34 5 -20 14
20 13 26 12 44 -6z m-195 -67 c33 -27 55 -127 31 -142 -6 -4 -10 7 -10 27 0
43 -27 93 -65 119 l-30 21 30 -7 c16 -4 36 -12 44 -18z m-361 -107 c19 -40 26
-72 27 -117 0 -33 3 -56 7 -50 11 17 9 -117 -2 -196 -6 -38 -20 -94 -33 -125
-19 -48 -26 -57 -47 -57 -23 0 -25 3 -23 45 l3 45 -20 -37 c-11 -21 -22 -38
-24 -38 -2 0 6 26 17 58 17 47 21 82 21 192 0 126 -9 190 -39 263 -6 14 -1 17
33 17 44 0 55 -9 77 -66 l15 -39 -5 35 c-3 19 -19 64 -35 100 -17 36 -23 56
-14 45 9 -11 28 -45 42 -75z m1009 18 c-6 -47 -27 -68 -66 -68 -26 1 -26 1 4
15 34 15 19 20 -18 6 -21 -8 -26 -6 -31 11 -7 29 -1 37 48 58 64 29 70 27 63
-22z m-1213 19 c17 -13 16 -16 -13 -58 -32 -46 -61 -131 -61 -184 0 -16 -5
-37 -10 -45 -8 -12 -12 -11 -31 9 -19 20 -21 30 -16 80 7 61 37 142 65 176 12
14 9 13 -10 -3 -41 -37 -78 -131 -91 -232 -12 -100 -31 -119 -41 -42 -12 94
23 210 81 263 54 50 93 61 127 36z m471 3 c3 -5 1 -10 -4 -10 -6 0 -11 5 -11
10 0 6 2 10 4 10 3 0 8 -4 11 -10z m-206 -70 l0 -65 -13 45 c-7 25 -15 54 -19
65 -6 16 -3 21 13 21 18 0 20 -7 19 -66z m178 44 c-3 -3 -12 -4 -19 -1 -8 3
-5 6 6 6 11 1 17 -2 13 -5z m62 -12 c29 18 36 4 22 -42 -11 -38 -42 -70 -68
-70 -11 0 -11 4 -1 21 11 17 11 23 0 26 -17 6 -42 32 -42 44 0 15 43 28 57 17
7 -6 19 -5 32 4z m-80 -67 c0 -5 -6 -1 -14 9 -8 11 -15 27 -15 35 1 17 29 -26
29 -44z m-357 -30 c4 -16 12 -31 18 -35 5 -3 13 -34 16 -68 8 -71 -2 -79 -51
-40 -48 38 -71 130 -44 179 9 18 13 19 32 6 11 -7 24 -27 29 -42z m1558 -25
c134 -27 276 -82 314 -122 23 -24 25 -29 10 -25 -131 38 -167 47 -214 51 l-55
6 63 -15 c145 -34 353 -107 340 -120 -3 -3 -29 4 -57 15 -207 81 -480 108
-817 79 -128 -11 -133 -11 -252 17 -130 30 -162 47 -40 21 40 -9 91 -18 113
-21 45 -7 322 18 333 29 4 4 -36 3 -88 -1 -136 -13 -267 -11 -281 3 -9 9 -4
15 19 27 35 18 82 21 82 6 0 -12 56 -12 85 -1 27 11 -120 24 -174 15 -37 -6
-41 -4 -41 14 0 17 10 21 83 31 188 26 423 22 577 -9z m-1353 -22 c-3 -7 -5
-2 -5 12 0 14 2 19 5 13 2 -7 2 -19 0 -25z m12 -189 c-5 -47 -13 -97 -19 -110
-10 -23 -10 -22 -5 6 2 17 8 82 12 145 5 86 9 106 14 80 4 -19 3 -73 -2 -121z
m524 134 c-7 -2 -21 -2 -30 0 -10 3 -4 5 12 5 17 0 24 -2 18 -5z m-44 -178
c-3 22 2 33 29 60 27 27 28 27 130 22 57 -3 109 -10 114 -15 29 -29 -105 -121
-158 -108 -37 10 -28 26 14 26 21 0 46 6 55 13 14 10 7 11 -45 7 -72 -6 -88
-27 -44 -55 35 -23 82 -13 147 30 58 40 59 40 59 21 0 -8 -17 -21 -37 -30 -53
-23 -111 -66 -89 -66 13 0 15 -4 7 -19 -9 -15 -7 -19 12 -23 12 -2 33 -1 47 3
36 10 98 10 104 0 3 -5 -18 -11 -47 -14 -80 -9 -91 -11 -99 -22 -12 -16 -9
-23 12 -30 11 -4 18 -11 14 -16 -7 -12 -156 115 -250 212 -87 91 -107 123 -30
49 32 -30 56 -50 55 -45z m-269 70 c0 -10 -44 -45 -57 -45 -24 0 -14 17 20 34
36 17 37 18 37 11z m122 -42 c9 -10 19 -29 23 -43 6 -23 4 -22 -21 8 -24 30
-30 33 -62 27 -32 -6 -34 -5 -23 9 18 21 64 20 83 -1z m639 -12 c24 -12 70
-48 102 -79 68 -67 77 -60 12 9 -25 26 -45 53 -45 58 0 26 46 41 127 41 81 0
83 -1 83 -24 0 -39 10 -54 31 -49 28 8 24 -21 -6 -45 -37 -30 -30 -34 21 -12
64 28 100 26 129 -7 29 -33 33 -58 8 -48 -71 29 -107 27 -157 -8 -16 -12 -26
-15 -22 -9 4 7 31 26 59 42 29 16 47 30 42 30 -6 0 -36 -16 -67 -35 -37 -24
-60 -45 -67 -65 -9 -27 -14 -30 -48 -29 -41 1 -101 16 -70 18 14 1 16 7 11 29
-4 15 -14 34 -23 42 -72 68 -193 135 -264 147 -27 4 -35 8 -25 15 23 15 122 3
169 -21z m-45 -51 c67 -34 158 -99 150 -107 -2 -3 -18 4 -34 16 -84 59 -215
80 -295 46 -48 -20 -54 -19 -32 5 10 11 36 25 57 32 21 6 38 17 38 25 0 22 53
15 116 -17z m-762 -4 c-3 -9 -10 -16 -15 -16 -6 0 -5 9 1 21 13 24 24 20 14
-5z m-615 -110 c38 -59 38 -91 2 -188 -23 -60 -101 -185 -148 -238 -46 -52
-183 -164 -258 -212 -95 -60 -141 -81 -197 -86 -45 -4 -48 -3 -58 24 -30 78
49 264 188 439 100 127 235 244 364 316 48 26 54 27 63 12 6 -9 25 -39 44 -67z
m991 -49 l64 -68 -34 3 c-37 3 -52 -17 -21 -27 12 -3 21 -13 21 -22 0 -14 2
-14 18 0 23 21 46 22 38 2 -3 -10 1 -15 11 -15 9 0 31 -16 50 -35 30 -31 33
-38 21 -52 -11 -15 -11 -16 7 -9 27 11 33 11 85 -4 42 -11 44 -13 25 -27 -19
-15 -19 -15 3 -8 12 4 22 2 22 -4 0 -15 -89 -86 -109 -86 -9 -1 -30 -11 -46
-23 -23 -18 -39 -22 -79 -20 -74 4 -85 28 -96 208 -7 118 -12 144 -28 158 -34
31 -52 66 -52 101 0 35 0 35 18 16 10 -11 47 -51 82 -88z m-1357 3 c3 -13 -10
-31 -42 -58 -26 -22 -56 -58 -66 -79 -24 -47 -78 -132 -85 -133 -18 0 -70 43
-70 59 0 26 92 163 152 227 l51 55 28 -27 c15 -14 29 -34 32 -44z m1164 0 c-1
-23 -37 -62 -37 -41 0 11 29 61 36 61 1 0 2 -9 1 -20z m635 12 c10 -4 -39 -7
-107 -7 -68 0 -117 3 -107 7 9 4 58 7 107 7 50 0 98 -3 107 -7z m376 -1 c9 -5
2 -10 -24 -14 -42 -7 -56 -1 -34 13 19 12 41 12 58 1z m-468 -36 c0 -10 -10
-15 -29 -15 -32 0 -50 15 -29 23 27 11 58 7 58 -8z m190 -49 c-1 -31 -1 -31
-15 9 -18 50 -18 50 0 35 8 -7 15 -27 15 -44z m-96 11 c-4 -11 -17 -17 -35
-17 -27 0 -28 2 -17 20 15 23 24 25 31 8 3 -7 6 -4 6 7 1 13 4 16 11 9 6 -6 8
-18 4 -27z m-624 -9 c-4 -18 -17 -53 -29 -78 -26 -57 -29 -102 -2 -50 46 92
45 91 52 30 6 -45 4 -58 -12 -79 -20 -25 -78 -71 -90 -71 -11 0 -17 133 -6
155 11 23 86 125 91 125 2 0 0 -15 -4 -32z m1053 25 c-7 -2 -19 -2 -25 0 -7 3
-2 5 12 5 14 0 19 -2 13 -5z m-1793 -94 c-8 -15 -9 -19 -1 -15 20 13 12 -27
-18 -91 -37 -77 -66 -109 -85 -91 -10 10 -6 25 24 84 20 39 45 98 55 130 10
33 21 64 24 69 11 19 12 -64 1 -86z m1255 63 c-7 -8 -35 7 -35 18 0 6 7 6 20
-2 10 -7 17 -14 15 -16z m-635 4 c0 -2 -8 -21 -17 -42 -12 -29 -18 -34 -21
-21 -6 29 7 67 23 67 8 0 15 -2 15 -4z m1144 -71 c-21 -45 -67 -79 -94 -70
-11 4 -18 11 -14 16 4 6 11 6 20 -2 20 -16 46 9 76 71 13 27 24 42 26 35 2 -8
-4 -30 -14 -50z m-24 49 c0 -18 -24 -44 -41 -44 -19 0 -19 1 -2 25 16 22 43
34 43 19z m-1637 -16 c12 -6 38 -14 57 -18 l35 -5 -70 -58 c-38 -32 -82 -67
-97 -78 l-28 -20 30 63 c17 35 33 78 36 96 7 36 7 36 37 20z m1473 -48 l11
-45 -43 -22 c-23 -13 -46 -28 -50 -35 -5 -8 -10 -6 -15 8 -7 18 -8 17 -8 -3
-1 -24 14 -39 24 -23 13 21 84 49 122 48 51 -1 63 -13 63 -61 0 -33 -7 -46
-43 -83 -24 -23 -56 -46 -71 -50 -41 -10 -91 18 -118 65 -26 45 -68 74 -101
69 -49 -6 -62 30 -25 69 25 27 54 29 105 8 43 -18 57 -10 25 15 -22 18 -22 19
-2 25 11 3 20 11 20 16 0 21 42 50 68 47 23 -3 29 -10 38 -48z m-211 13 c-19
-15 -19 -15 5 -9 24 7 24 6 5 -9 -64 -51 -211 -44 -257 13 -10 13 -7 12 18 -3
31 -18 32 -18 59 3 33 26 50 27 89 7 25 -13 31 -13 45 -1 19 16 44 25 51 19 3
-3 -4 -11 -15 -20z m-948 -75 c-2 -13 -4 -5 -4 17 -1 22 1 32 4 23 2 -10 2
-28 0 -40z m402 -56 c1 -18 -6 -46 -14 -63 -14 -26 -14 -32 -1 -51 13 -19 13
-25 -5 -59 -10 -21 -28 -43 -40 -49 -11 -6 -24 -21 -29 -33 -7 -16 -8 -11 -4
18 4 22 13 53 21 68 18 36 10 46 -17 22 -30 -28 -49 -6 -32 38 l11 32 -18 -22
c-15 -17 -20 -19 -24 -9 -7 17 0 26 78 110 64 68 73 68 74 -2z m970 22 c24
-31 29 -110 8 -138 -12 -16 -15 -16 -41 11 -25 24 -28 33 -24 75 3 29 1 49 -6
52 -7 3 -6 8 4 15 23 17 37 13 59 -15z m-1403 -140 c0 0 -23 -11 -51 -24 -33
-16 -82 -57 -146 -122 -64 -66 -102 -98 -117 -98 -38 0 -118 -47 -155 -90 -37
-44 -97 -149 -97 -171 0 -8 -28 -36 -62 -64 -34 -27 -127 -112 -207 -188 -79
-76 -145 -136 -147 -134 -13 12 24 127 69 217 94 187 217 337 339 412 26 16
48 34 48 38 0 5 17 17 38 27 54 25 138 81 265 175 113 84 127 94 175 135 l27
23 11 -68 c6 -37 11 -67 10 -68z m972 50 c17 -4 32 -13 32 -20 0 -8 6 -13 13
-11 7 1 12 -11 13 -33 1 -25 -6 -42 -27 -62 -28 -29 -49 -36 -49 -17 0 6 -12
1 -26 -10 -32 -25 -46 -27 -37 -5 5 15 3 15 -23 0 -16 -8 -42 -24 -59 -35 -42
-29 -48 -26 -25 12 31 50 24 53 -25 8 -45 -41 -81 -61 -112 -61 -15 0 -15 2 1
18 28 29 56 65 53 68 -2 2 -27 -5 -55 -16 -56 -21 -112 -26 -112 -10 0 6 10
10 23 10 53 0 160 48 206 93 58 57 118 90 151 82 14 -3 40 -8 58 -11z m408
-113 c46 -30 119 -51 174 -51 22 0 28 -4 24 -15 -4 -8 -17 -15 -29 -15 -13 0
-26 -4 -30 -9 -8 -13 58 -25 92 -17 19 4 23 3 13 -3 -8 -5 -41 -14 -73 -21
-67 -14 -109 -3 -159 38 l-31 27 6 -30 7 -30 -25 30 c-13 17 -29 30 -34 30 -5
0 -23 12 -40 28 -36 32 -42 54 -10 36 17 -9 24 -7 37 10 22 27 23 26 78 -8z
m-322 5 c-3 -8 -12 -17 -20 -20 -12 -4 -12 -2 -4 14 12 23 32 27 24 6z m1370
-14 c3 -5 -3 -22 -14 -39 -13 -22 -29 -32 -56 -38 -93 -17 -161 -55 -230 -127
-36 -39 -69 -66 -74 -62 -4 5 -10 26 -13 47 -5 32 -1 43 24 72 17 19 28 39 25
44 -12 19 83 73 166 95 59 16 164 21 172 8z m102 -22 c20 0 117 -71 156 -113
67 -72 153 -276 128 -301 -16 -16 -44 19 -59 71 -17 61 -81 162 -132 207 -43
40 -99 70 -146 81 -38 8 -38 8 -16 41 12 18 22 24 37 20 12 -3 26 -6 32 -6z
m-3111 -17 c16 -16 16 -17 0 -30 -10 -7 -22 -10 -26 -7 -5 3 -9 1 -9 -4 0 -5
-12 -14 -26 -21 -20 -9 -30 -9 -40 0 -21 17 -14 28 31 55 49 28 50 28 70 7z
m495 -17 c0 -2 -8 -10 -17 -17 -16 -13 -17 -12 -4 4 13 16 21 21 21 13z m1296
-21 c26 -11 34 -19 30 -31 -3 -8 -6 -19 -6 -24 0 -4 -19 -3 -42 2 -24 5 -81 7
-128 4 -64 -4 -91 -2 -110 8 -19 11 -22 16 -10 20 77 29 104 35 163 35 39 1
83 -5 103 -14z m1271 -60 c93 -28 186 -140 208 -252 6 -31 5 -33 -20 -33 -32
0 -68 -35 -86 -85 l-14 -38 -89 7 c-49 3 -151 6 -227 6 l-137 0 14 47 c18 59
18 122 0 142 -30 34 -27 56 10 99 60 70 164 120 255 121 19 1 58 -6 86 -14z
m-1550 -45 c5 -20 6 -20 26 -3 19 17 20 17 15 -2 -3 -11 -9 -29 -13 -40 -5
-16 -2 -15 17 6 14 14 37 28 51 31 32 6 31 8 12 -40 l-15 -37 25 30 c14 17 25
33 25 38 0 4 11 7 24 7 32 0 39 -24 33 -113 l-6 -72 16 77 c9 49 20 79 30 83
25 9 52 -23 56 -69 2 -28 4 -19 5 27 1 43 6 66 12 62 6 -3 10 1 10 9 0 32 83
30 148 -3 27 -14 42 -17 44 -9 7 20 60 -1 94 -37 24 -25 34 -49 42 -92 15 -87
-4 -111 -43 -53 -25 37 -38 39 -25 4 15 -40 12 -46 -15 -28 l-25 16 -1 -43
c-1 -24 -4 -55 -8 -68 -7 -25 -7 -24 -28 12 -13 20 -27 37 -33 37 -6 0 -9 4
-5 9 3 5 2 12 -3 15 -5 3 -8 -34 -8 -82 1 -91 -11 -115 -30 -60 -14 41 -29 20
-26 -37 l1 -40 -12 34 c-18 47 -37 52 -37 9 -1 -32 -2 -31 -23 20 -12 30 -26
55 -32 55 -5 1 -14 -17 -20 -40 -13 -54 -23 -62 -30 -27 -11 49 -13 53 -34 51
-13 -1 -22 -11 -26 -32 -7 -31 -9 -29 -19 18 -8 36 -22 34 -47 -8 -25 -41 -39
-37 -39 11 0 19 -3 33 -7 32 -31 -6 -75 36 -78 74 -1 20 -18 19 -41 -3 l-27
-24 6 30 c3 17 9 39 13 50 5 15 -2 12 -27 -12 -43 -40 -49 -41 -49 -4 0 28 0
28 -51 24 -48 -4 -50 -3 -44 16 6 21 -9 29 -20 11 -7 -12 -46 10 -43 25 1 5
-6 27 -16 47 -10 21 -16 44 -13 50 5 13 -16 39 -30 37 -4 0 -9 4 -11 10 -5 14
4 14 44 -1 26 -9 46 -8 104 6 53 13 75 15 80 7 5 -8 16 -7 41 3 49 22 80 20
86 -4z m-1816 -16 c-47 -60 -135 -103 -196 -96 -28 3 -35 9 -35 26 0 18 6 21
48 23 30 1 73 14 122 37 41 19 76 35 78 36 2 0 -6 -12 -17 -26z m736 -23 c14
-8 10 -9 -17 -3 -19 4 -59 7 -89 6 -36 0 -48 2 -35 8 24 10 117 3 141 -11z
m207 -71 c16 -16 -26 -11 -54 6 l-25 15 35 -6 c19 -3 39 -10 44 -15z m2001
-12 c21 -9 35 -28 21 -28 -16 0 -56 21 -56 30 0 13 3 13 35 -2z m-2910 -83
c-14 -17 -25 -36 -25 -41 0 -5 -7 -20 -16 -32 -13 -18 -19 -21 -30 -11 -18 15
-17 39 1 63 12 16 17 17 30 6 9 -8 15 -8 15 -2 0 6 -5 14 -10 17 -6 4 -1 18
12 35 20 24 25 26 35 13 10 -13 7 -22 -12 -48z m2921 35 l42 -18 -13 -63 c-22
-103 -18 -99 -99 -99 -40 0 -75 2 -78 5 -3 3 9 50 26 105 35 111 31 109 122
70z m-2236 13 c-64 -5 -168 -32 -213 -55 -22 -11 -41 -18 -43 -15 -6 6 83 48
134 62 26 7 74 12 107 12 47 0 51 -1 15 -4z m286 -108 c178 -94 248 -160 259
-244 6 -49 9 -49 -62 11 -51 43 -192 107 -271 123 -40 8 -107 15 -149 15 -64
0 -74 2 -69 16 3 9 6 24 6 34 0 46 75 89 157 90 32 0 65 -12 129 -45z m252 0
c-3 -3 -9 2 -12 12 -6 14 -5 15 5 6 7 -7 10 -15 7 -18z m-1304 -42 c4 -9 -5
-39 -20 -70 -26 -50 -28 -52 -41 -33 -13 18 -11 26 13 70 29 53 38 60 48 33z
m3811 -12 c-3 -10 -10 -39 -15 -62 l-9 -44 2 50 2 50 -50 11 -50 12 63 1 c58
1 63 -1 57 -18z m-2339 -67 c1 -9 0 -13 -4 -10 -3 4 -7 14 -8 22 -1 9 0 13 4
10 3 -4 7 -14 8 -22z m-1233 -46 c-27 -35 -62 -83 -78 -107 -17 -25 -51 -68
-77 -96 -26 -29 -44 -55 -40 -59 4 -4 2 -6 -5 -4 -6 2 -39 -21 -72 -50 l-61
-53 0 30 c0 26 27 57 184 215 102 103 188 186 191 186 4 0 -15 -28 -42 -62z
m785 21 c120 -31 217 -95 320 -213 41 -47 41 -49 23 -63 -21 -14 -26 -10 -121
96 -55 62 -192 138 -290 162 -30 7 -59 16 -64 21 -6 4 -42 9 -80 9 -59 1 -65
3 -36 9 48 11 160 1 248 -21z m493 13 c-7 -2 -18 1 -23 6 -8 8 -4 9 13 5 13
-4 18 -8 10 -11z m1692 -3 c102 -13 123 -22 77 -30 -29 -5 -25 -7 24 -8 39 -1
74 -9 104 -23 49 -25 145 -117 168 -161 l15 -28 -28 16 c-17 11 -21 12 -11 3
26 -22 71 -126 65 -150 -4 -12 -1 -30 4 -41 15 -28 3 -62 -26 -75 -25 -12
-190 -42 -227 -42 -14 0 -18 9 -19 38 -3 90 -14 87 -14 -5 0 -56 -3 -104 -6
-107 -3 -3 -20 -3 -36 0 -31 6 -31 6 -38 93 -19 244 -107 423 -249 506 -25 15
-46 28 -46 29 0 4 177 -6 243 -15z m-303 -30 c75 -40 156 -120 152 -151 -2
-17 0 -19 6 -9 12 16 29 -7 62 -82 19 -43 55 -187 48 -191 -55 -34 -58 -37
-58 -74 0 -52 -25 -142 -56 -203 -26 -52 -99 -139 -116 -139 -6 0 6 18 25 39
42 46 63 85 83 150 17 58 17 60 -2 33 -20 -29 -32 -21 -26 18 2 16 0 30 -5 30
-5 0 -11 26 -12 58 -1 31 -6 59 -12 60 -5 2 -9 10 -9 17 0 8 -8 20 -17 27 -10
7 -18 20 -19 28 -1 8 -4 26 -8 40 -6 19 -5 21 3 10 6 -8 11 -10 11 -4 0 7 16
19 35 28 19 9 35 19 35 22 0 18 -61 107 -104 152 -68 71 -128 101 -226 112
-99 11 -167 -8 -227 -63 -13 -11 -23 -15 -23 -9 0 6 10 16 21 23 15 7 18 14
10 18 -32 20 93 82 179 90 124 12 186 4 250 -30z m635 20 c77 -14 104 -28 155
-86 87 -97 141 -256 138 -403 -1 -41 -3 -60 -5 -42 -5 36 -11 39 -39 17 -25
-19 -54 -19 -54 0 0 8 -4 15 -10 15 -5 0 -10 17 -10 38 -1 50 -37 152 -83 234
-62 110 -156 194 -265 235 -35 13 -34 13 38 8 41 -4 102 -11 135 -16z m-1942
4 c-13 -2 -33 -2 -45 0 -13 2 -3 4 22 4 25 0 35 -2 23 -4z m-1696 -81 l-13
-73 -12 36 c-12 31 -11 39 9 75 12 22 24 39 25 37 2 -1 -3 -35 -9 -75z m3168
-16 c58 -58 108 -154 131 -253 21 -90 12 -115 -10 -28 -31 122 -80 211 -163
293 -54 54 -65 68 -41 56 17 -9 55 -40 83 -68z m-3138 42 c-3 -8 -6 -5 -6 6
-1 11 2 17 5 13 3 -3 4 -12 1 -19z m3951 -96 c48 -57 71 -101 88 -167 16 -57
19 -185 5 -185 -5 0 -15 26 -21 58 -31 166 -67 255 -138 342 l-37 45 32 -23
c17 -12 49 -43 71 -70z m-1908 54 c0 -2 -8 -10 -17 -17 -16 -13 -17 -12 -4 4
13 16 21 21 21 13z m-550 -61 c46 -47 59 -55 80 -50 39 10 19 -3 -45 -29 l-59
-24 -17 38 c-20 45 -34 120 -22 120 5 0 33 -25 63 -55z m510 29 c0 -9 -68 -34
-92 -33 -13 0 -2 6 25 13 26 7 50 16 54 19 8 8 13 9 13 1z m-886 -36 c44 -7
81 -19 84 -25 2 -7 10 -13 17 -13 8 0 17 -5 21 -12 5 -8 1 -9 -12 -5 -12 5 -8
-2 11 -19 112 -95 135 -134 135 -227 0 -35 -23 -77 -36 -65 -4 4 -12 4 -19 -2
-15 -12 -68 25 -92 65 -14 24 -18 26 -21 12 -2 -9 7 -34 19 -54 22 -36 15 -38
-23 -5 -33 28 -18 6 23 -33 22 -22 37 -32 34 -23 -6 15 1 14 38 -7 57 -32 69
-47 65 -80 l-3 -27 -171 1 c-127 1 -190 -2 -243 -15 -40 -9 -75 -14 -77 -11
-3 2 3 12 12 21 64 65 -137 -21 -221 -94 -26 -23 -49 -39 -52 -36 -11 11 31
71 171 239 21 26 37 50 34 52 -3 3 -26 -6 -53 -20 -27 -13 -52 -22 -56 -19 -4
2 -17 34 -29 70 -41 122 -10 273 64 311 84 44 203 51 380 21z m760 -89 c22
-10 35 -19 28 -19 -27 0 -103 44 -132 76 -46 53 -36 56 16 6 26 -24 65 -53 88
-63z m-1943 77 c-7 -8 -9 -20 -5 -27 4 -8 11 -2 20 17 15 35 18 17 4 -21 -9
-23 -13 -25 -25 -15 -18 15 -19 42 -3 58 16 16 24 6 9 -12z m2552 9 c-3 -9 -8
-14 -10 -11 -3 3 -2 9 2 15 9 16 15 13 8 -4z m1421 -32 c19 -26 39 -65 46 -86
6 -22 14 -45 17 -53 3 -10 -2 -14 -19 -14 -20 0 -27 9 -45 63 -11 34 -28 79
-37 100 -23 51 -3 47 38 -10z m-1674 -28 c0 -2 -10 -9 -22 -15 -22 -11 -22
-10 -4 4 21 17 26 19 26 11z m342 -52 c-33 -43 -52 -92 -52 -135 0 -18 -4 -27
-11 -23 -12 8 -3 77 13 110 18 35 59 85 69 85 6 0 -2 -17 -19 -37z m-2369 -10
c-49 -117 -83 -304 -90 -496 l-6 -158 -30 28 c-16 15 -36 44 -44 63 -35 80
-63 239 -62 342 l0 63 122 97 c67 53 123 97 124 97 1 1 -5 -16 -14 -36z m2695
-9 c34 -41 62 -121 61 -173 l-1 -36 -8 30 c-4 17 -11 48 -15 69 -5 30 -9 36
-16 25 -8 -10 -9 -9 -4 7 4 15 -5 35 -30 68 -41 54 -30 63 13 10z m-831 -7 c4
-7 19 -21 33 -30 13 -9 19 -17 12 -17 -16 0 -81 59 -65 60 7 0 16 -6 20 -13z
m-627 -46 c11 -22 23 -66 26 -98 4 -32 12 -61 18 -65 7 -5 5 -8 -6 -8 -12 0
-18 13 -23 53 -4 28 -16 75 -26 102 -21 55 -21 55 -14 55 2 0 14 -18 25 -39z
m1336 -17 c18 -14 16 -15 -31 -10 -36 4 -44 3 -30 -4 18 -9 18 -9 -5 -7 -34 3
-80 -50 -80 -92 0 -17 -4 -31 -10 -31 -5 0 -10 21 -10 46 0 39 5 51 34 80 27
27 42 34 73 34 22 0 48 -7 59 -16z m-2871 -14 c11 -18 -6 -90 -21 -90 -10 0
-14 13 -14 43 0 24 3 47 7 50 9 10 21 9 28 -3z m2532 -32 c-3 -8 -6 -5 -6 6
-1 11 2 17 5 13 3 -3 4 -12 1 -19z m-2052 -83 c-8 -48 -15 -133 -16 -189 -1
-90 -2 -96 -11 -56 -14 70 -5 247 17 298 9 24 19 41 22 39 2 -2 -3 -44 -12
-92z m2542 63 c-3 -7 -5 -2 -5 12 0 14 2 19 5 13 2 -7 2 -19 0 -25z m-1278 -9
c-8 -5 -23 -9 -34 -8 -18 0 -17 1 5 13 26 15 52 10 29 -5z m-1749 -91 c0 -17
3 -19 9 -10 5 9 10 1 14 -25 11 -63 9 -83 -8 -77 -10 4 -16 21 -17 48 l-1 41
-4 -37 c-4 -39 -19 -50 -29 -23 -11 27 6 105 22 105 8 0 14 -10 14 -22z m2889
-44 c45 -58 16 -104 -65 -104 -88 0 -314 -162 -314 -225 0 -3 27 17 60 43 122
99 198 124 303 102 62 -12 117 -50 117 -80 0 -23 -44 -39 -88 -32 -65 9 -196
-42 -248 -98 -22 -23 -35 -29 -52 -25 -17 4 -23 2 -20 -7 3 -9 36 -14 117 -16
100 -2 112 -5 109 -20 -2 -11 -23 -23 -63 -34 -33 -10 -100 -31 -150 -48 -101
-34 -166 -40 -145 -15 7 9 10 18 6 22 -11 12 -79 -32 -105 -69 -15 -21 -34
-36 -45 -35 -17 1 -18 8 -12 87 8 93 10 99 142 300 79 121 135 185 199 225 68
43 99 53 172 54 55 1 64 -2 82 -25z m-792 -9 l28 -26 -37 22 c-44 25 -97 19
-105 -12 -7 -27 -23 -23 -23 5 0 29 11 34 67 35 31 1 49 -5 70 -24z m1903 -23
c0 -28 -2 -27 -18 4 -9 16 -8 21 4 21 8 0 14 -10 14 -25z m-2055 -49 c36 -87
49 -133 40 -141 -6 -5 -23 -12 -40 -15 -29 -6 -29 -6 5 10 l35 16 -32 13 c-18
8 -38 15 -45 16 -10 3 -56 86 -61 112 -2 9 34 23 65 25 11 1 23 -12 33 -36z
m-246 -69 c10 -49 22 -122 25 -161 6 -62 5 -73 -8 -73 -9 0 -18 12 -21 28 -12
58 -29 78 -93 109 -2 0 2 21 8 45 21 77 20 74 29 59 10 -15 13 -6 26 57 4 18
9 32 11 29 2 -2 12 -44 23 -93z m1771 87 c0 -11 -26 -22 -34 -14 -12 12 -5 23
14 23 11 0 20 -4 20 -9z m-1410 -11 c0 -5 -4 -10 -10 -10 -5 0 -10 5 -10 10 0
6 5 10 10 10 6 0 10 -4 10 -10z m-2034 -18 c6 -4 15 -30 21 -58 l10 -51 -39 0
c-33 0 -41 4 -49 24 -15 40 -12 86 6 80 8 -4 17 -2 20 3 7 12 16 12 31 2z
m1118 -77 l-16 -25 100 0 c56 0 124 -5 152 -11 28 -6 54 -8 57 -5 9 8 -43 27
-132 47 l-80 19 65 -5 c36 -2 87 -12 113 -21 46 -16 48 -17 41 -48 -3 -17 -7
-32 -8 -32 -3 -5 -139 -8 -191 -5 l-60 4 50 7 c28 5 73 9 100 10 44 2 47 3 20
10 -50 13 -196 11 -258 -4 -47 -11 -55 -11 -46 0 6 7 8 18 4 24 -9 15 -87 12
-130 -6 -20 -8 -39 -13 -41 -11 -13 13 190 74 254 76 22 1 22 0 6 -24z m2811
-6 c0 -7 -8 -15 -17 -17 -18 -3 -25 18 -11 32 10 10 28 1 28 -15z m-1707 -25
c2 -16 -4 -23 -24 -28 -34 -9 -37 -5 -24 28 12 32 43 32 48 0z m-2341 -16 c-3
-7 -5 -2 -5 12 0 14 2 19 5 13 2 -7 2 -19 0 -25z m178 -64 c14 -31 25 -61 25
-66 0 -5 -14 -8 -32 -6 -35 3 -61 37 -73 96 -6 31 -5 32 24 32 28 0 34 -5 56
-56z m368 6 c6 -14 9 -32 8 -39 -2 -8 4 -20 12 -25 8 -6 19 -45 26 -90 6 -43
14 -90 16 -105 11 -54 -37 66 -55 139 -18 72 -35 191 -23 160 3 -8 10 -26 16
-40z m-479 -129 c4 -6 4 -11 1 -11 -10 0 -53 105 -60 146 -4 25 5 10 23 -42
16 -45 32 -86 36 -93z m2404 144 c-6 -6 -177 -33 -253 -41 -43 -3 -46 -3 -24
6 60 24 296 53 277 35z m-78 -45 c0 -5 -12 -10 -27 -9 -25 0 -26 1 -8 9 27 12
35 12 35 0z m-717 -29 c24 -12 49 -32 55 -45 10 -23 7 -25 -56 -54 -59 -26
-186 -63 -262 -75 -14 -2 4 -5 40 -5 69 -1 138 13 235 48 90 33 170 30 275
-10 110 -42 182 -59 248 -60 l52 0 0 -33 c0 -63 -134 -183 -247 -222 -35 -12
-38 -12 -43 6 -5 19 -6 18 -40 -5 -95 -64 -284 -90 -443 -59 l-29 5 26 27 c14
15 26 35 26 45 0 15 -5 17 -27 11 -126 -33 -273 1 -222 52 23 23 -1 32 -65 26
-58 -5 -64 -4 -80 18 -39 56 -12 133 75 213 134 125 356 178 482 117z m1235
-11 c-47 -15 -92 -31 -100 -35 -10 -6 -10 -5 -1 5 15 16 140 60 168 59 11 0
-19 -13 -67 -29z m-621 -32 c-3 -8 -6 -5 -6 6 -1 11 2 17 5 13 3 -3 4 -12 1
-19z m1877 -43 c-23 -35 -29 -25 -7 13 10 18 19 27 21 22 2 -5 -4 -20 -14 -35z
m-3917 -2 c48 -62 48 -63 5 -63 -36 0 -42 4 -61 40 -27 52 -26 60 3 60 16 0
34 -13 53 -37z m917 -8 c-15 -14 -31 -25 -35 -25 -14 0 -47 -41 -69 -84 -19
-40 -20 -40 -20 -12 0 16 14 52 30 82 30 52 42 59 98 63 23 1 23 1 -4 -24z
m-1044 -69 c18 -33 28 -56 21 -52 -13 8 -71 106 -71 121 0 15 14 -5 50 -69z
m3163 -93 c4 -71 7 -255 7 -410 0 -231 -2 -283 -14 -283 -9 0 -15 22 -20 77
-8 96 -8 706 0 727 14 37 21 8 27 -111z m-3313 86 c0 -10 -4 -19 -10 -19 -5 0
-10 12 -10 26 0 14 4 23 10 19 6 -3 10 -15 10 -26z m3720 21 c0 -5 -4 -10 -10
-10 -5 0 -10 5 -10 10 0 6 5 10 10 10 6 0 10 -4 10 -10z m-1350 -61 c0 -27 -4
-48 -9 -45 -5 3 -12 -4 -17 -17 -6 -16 -9 -7 -11 37 -3 41 0 62 9 67 24 16 28
9 28 -42z m-1997 -1 l36 -43 -27 -17 c-15 -10 -32 -18 -39 -18 -13 0 -74 106
-65 115 3 3 18 5 33 5 20 0 37 -11 62 -42z m-343 3 c0 -19 119 -225 185 -321
64 -93 95 -163 76 -174 -8 -5 -142 164 -179 224 -52 85 -102 213 -102 263 0
16 4 26 10 22 6 -3 10 -10 10 -14z m129 -59 c20 -27 30 -47 24 -49 -7 -3 0
-23 18 -55 40 -67 80 -148 75 -148 -3 0 -25 28 -50 63 -52 73 -126 222 -125
251 0 20 1 20 12 2 7 -10 27 -39 46 -64z m3768 -233 c9 -8 51 -16 94 -20 76
-5 99 -12 86 -25 -4 -4 -56 -6 -116 -5 l-109 2 -4 -123 c-4 -120 -4 -123 20
-147 18 -18 22 -26 12 -29 -7 -3 -22 5 -32 18 -16 20 -18 45 -18 274 0 138 3
261 6 273 3 12 13 23 23 25 14 3 16 -11 19 -113 2 -93 6 -120 19 -130z m-3475
194 c13 -16 37 -44 52 -64 l26 -36 -19 -24 -20 -24 -55 60 c-59 65 -65 81 -38
101 23 18 25 18 54 -13z m1913 -39 c8 -20 15 -48 14 -63 0 -24 -2 -22 -19 14
-17 38 -26 85 -15 85 3 0 12 -16 20 -36z m-1777 -114 c17 -16 32 -39 32 -50 0
-20 -1 -20 -27 -5 -57 33 -65 43 -58 64 8 27 14 26 53 -9z m3617 -1 c5 -5 -28
-9 -82 -9 -50 0 -106 -3 -124 -6 -20 -4 -31 -3 -26 2 10 11 175 33 202 26 11
-2 24 -8 30 -13z m232 -90 c30 -11 19 -39 -16 -39 -58 0 -110 25 -111 53 0 10
92 -1 127 -14z m-184 4 c-13 -2 -33 -2 -45 0 -13 2 -3 4 22 4 25 0 35 -2 23
-4z m167 -73 c-14 -4 -45 -8 -70 -8 l-45 1 45 7 c25 4 56 7 70 8 l25 0 -25 -8z
m-801 -166 c-24 -29 -39 -16 -39 36 0 58 6 63 19 18 8 -29 9 -25 10 33 1 36 4
69 9 73 12 13 14 -144 1 -160z m-2521 98 c31 -16 84 -39 117 -52 33 -13 67
-30 75 -38 44 -42 -161 40 -229 92 -45 34 -34 33 37 -2z m3181 -15 c6 -8 12
-24 13 -38 3 -20 -2 -24 -28 -27 -26 -3 -32 1 -36 20 -3 13 -9 31 -13 41 -6
14 -2 17 23 17 16 0 35 -6 41 -13z m-1491 -36 c4 -11 0 -12 -14 -6 -11 5 -29
9 -41 9 -13 1 -23 5 -23 9 0 14 73 3 78 -12z m-1243 -77 c47 -6 54 -9 35 -14
-22 -6 -130 -2 -139 6 -9 8 13 24 27 20 10 -3 44 -8 77 -12z m-984 -81 c12
-14 12 -16 0 -8 -11 6 -13 4 -6 -11 4 -10 10 -29 12 -41 3 -13 8 -21 12 -19 3
2 7 -7 7 -20 2 -31 -24 -32 -35 -1 -4 12 -11 43 -15 70 -8 49 1 60 25 30z
m1853 -28 c3 -9 0 -15 -9 -15 -8 0 -15 7 -15 15 0 8 4 15 9 15 5 0 11 -7 15
-15z m-1455 -140 c1 -16 8 -51 16 -77 8 -27 12 -48 10 -48 -14 0 -36 70 -41
128 -3 46 -1 61 5 47 5 -11 10 -33 10 -50z m220 -31 c144 -49 211 -79 211 -93
0 -5 -9 -30 -20 -56 -11 -26 -20 -55 -20 -65 0 -18 -5 -17 -75 8 -64 23 -75
30 -75 50 0 56 -47 118 -134 176 -21 14 -35 26 -31 26 4 0 69 -21 144 -46z
m132 -10 c52 -20 104 -40 116 -45 l21 -8 -28 -73 c-16 -40 -29 -83 -30 -96 0
-15 -5 -22 -12 -19 -17 6 -12 40 14 106 15 39 19 58 11 70 -9 14 -84 51 -178
87 -17 7 -25 12 -19 13 7 1 54 -15 105 -35z m859 1 c0 -10 -10 -15 -32 -15
l-33 0 25 14 c33 19 40 19 40 1z m288 -145 c-1 -91 -1 -93 -8 -35 -12 92 -12
163 0 145 5 -8 9 -58 8 -110z m-250 35 c2 -27 0 -84 -4 -125 l-8 -75 -7 45
c-4 25 -8 75 -8 112 l-1 67 -147 -4 c-82 -2 -130 -1 -108 1 22 3 49 9 60 14
25 12 81 17 160 16 l60 -1 3 -50z m-98 -37 c0 -13 -5 -40 -11 -61 -8 -30 -7
-42 6 -59 27 -40 20 -48 -45 -48 l-60 0 0 36 c0 45 26 101 51 109 10 4 24 15
29 26 14 26 30 24 30 -3z m-693 -139 c9 -9 8 -19 -3 -40 -8 -16 -17 -29 -19
-29 -8 0 -1 24 9 32 5 3 -6 16 -25 27 l-34 21 31 0 c16 0 35 -5 41 -11z"/>
<path d="M2970 4527 c0 -2 14 -16 31 -33 22 -20 28 -23 19 -8 -11 18 -50 50
-50 41z"/>
<path d="M3030 4443 c0 -55 -116 -132 -200 -133 l-45 -1 35 -29 c91 -77 199
-102 254 -59 26 21 27 24 21 83 -4 33 -18 82 -31 109 -26 50 -34 57 -34 30z"/>
<path d="M1491 4034 c0 -11 3 -14 6 -6 3 7 2 16 -1 19 -3 4 -6 -2 -5 -13z"/>
<path d="M1423 3973 c7 -41 20 -59 36 -49 16 10 13 52 -5 70 -26 27 -37 19
-31 -21z"/>
<path d="M2826 3292 c-8 -33 -50 -73 -97 -91 -20 -7 -34 -6 -55 5 -29 15 -29
15 -9 -5 11 -11 31 -23 45 -26 50 -12 136 74 128 127 -3 20 -5 18 -12 -10z"/>
<path d="M3811 2506 c21 -22 29 -25 50 -17 24 10 24 10 1 10 -12 1 -35 9 -50
18 l-27 16 26 -27z"/>
<path d="M3775 2480 c3 -5 13 -10 21 -10 8 0 12 5 9 10 -3 6 -13 10 -21 10 -8
0 -12 -4 -9 -10z"/>
<path d="M3855 2301 c-7 -12 12 -24 25 -16 11 7 4 25 -10 25 -5 0 -11 -4 -15
-9z"/>
<path d="M3924 2089 c-8 -14 11 -33 25 -25 11 7 4 36 -9 36 -5 0 -12 -5 -16
-11z"/>
<path d="M3125 2460 c-3 -6 1 -7 9 -4 18 7 21 14 7 14 -6 0 -13 -4 -16 -10z"/>
<path d="M4352 2328 c6 -18 28 -21 28 -4 0 9 -7 16 -16 16 -9 0 -14 -5 -12
-12z"/>
<path d="M3288 1888 c-101 -13 -223 -93 -265 -173 -12 -21 -1 -14 35 26 68 74
156 121 241 128 35 3 66 11 68 17 4 12 -2 13 -79 2z"/>
</g>
</svg>
